# xmcd
#
# Track frame offsets: 
#        150
#        10895
#        21570
#        33535
#        43237
#        57195
#        71770
#        83620
#        95390
#        106145
#        118095
#        131597
#        141140
#        149745
#        158900
#        170102
#        180810
#        191502
#        203375
#        213337
#
# Disc length: 3016 seconds
#
# Revision: 6
# Processed by: cddbd v1.5.2PL0 Copyright (c) Steve Scherf et al.
# Submitted via: ExactAudioCopyFreeDBPlugin 1.0
#
DISCID=1d0bc614
DTITLE=Tennessee Ernie Ford - Vintage Collections
DYEAR=1997
DGENRE=Country
TTITLE0=Milk 'Em in the Morning Blues
TTITLE1=Country Junction
TTITLE2=Smokey Mountain Boogie
TTITLE3=Anticipation Blues
TTITLE4=Mule Train
TTITLE5=Cry of the Wild Goose
TTITLE6=I'll Never Be Free (ft Kay Starr)
TTITLE7=Shotgun Boogie
TTITLE8=I Ain't Gonna Let it Happen No More
TTITLE9=You're My Sugar (ft Kay Starr)
TTITLE10=The Streamlined Cannonball (ft The Dinning Sisters)
TTITLE11=Hey, Good Lookin' (ft Helen O'Connell)
TTITLE12=Hambone (ft Bucky Tibbs)
TTITLE13=Everybody's Got a Girl But Me
TTITLE14=Snowshoe Thompson
TTITLE15=Hey, Mr. Cotton Picker
TTITLE16=Kiss Me Big
TTITLE17=Sixteen Tons
TTITLE18=First Born
TTITLE19=Hicktown
EXTD=
EXTT0=
EXTT1=
EXTT2=
EXTT3=
EXTT4=
EXTT5=
EXTT6=
EXTT7=
EXTT8=
EXTT9=
EXTT10=
EXTT11=
EXTT12=
EXTT13=
EXTT14=
EXTT15=
EXTT16=
EXTT17=
EXTT18=
EXTT19=
PLAYORDER=
